# xmcd
#
# Track frame offsets: 
#        150
#        16952
#        32827
#        50465
#        72049
#        93919
#        114092
#        130459
#        145589
#        164867
#        180840
#        199516
#        216503
#        250588
#
# Disc length: 3705 seconds
#
# Revision: 2
# Processed by: cddbd v1.5.2PL0 Copyright (c) Steve Scherf et al.
# Submitted via: ExactAudioCopy v0.95b4
#
DISCID=bb0e770e
DTITLE=Cheb Mami - duSudauNord
DYEAR=2003
DGENRE=Raï
TTITLE0=Des 2 Côtés
TTITLE1=Parisien du Nord
TTITLE2=Madanite
TTITLE3=Desert Rose
TTITLE4=Cosi Celeste
TTITLE5=Nagumomo
TTITLE6=Enfants d'Afrique
TTITLE7=Clando
TTITLE8=Youm Wara Youm
TTITLE9=Fugitif
TTITLE10=The Best Times of Our Lives
TTITLE11=Koum Tara
TTITLE12=Azwaw
TTITLE13=DATA
EXTD=
EXTT0=
EXTT1=
EXTT2=
EXTT3=
EXTT4=
EXTT5=
EXTT6=
EXTT7=
EXTT8=
EXTT9=
EXTT10=
EXTT11=
EXTT12=
EXTT13=
PLAYORDER=
